<?xml version="1.0" standalone="no"?>
<!DOCTYPE svg PUBLIC "-//W3C//DTD SVG 20010904//EN"
 "http://www.w3.org/TR/2001/REC-SVG-20010904/DTD/svg10.dtd">
<svg version="1.0" xmlns="http://www.w3.org/2000/svg"
 width="1024.000000pt" height="1024.000000pt" viewBox="0 0 1024.000000 1024.000000"
 preserveAspectRatio="xMidYMid meet">

<g transform="translate(0.000000,1024.000000) scale(0.100000,-0.100000)"
fill="#000000" stroke="none">
<path d="M4037 7096 c-13 -108 22 -253 84 -345 79 -119 168 -175 421 -267 179
-65 263 -107 344 -172 111 -90 192 -226 221 -372 10 -47 19 -87 20 -89 2 -3
17 3 33 12 27 16 32 16 59 3 l29 -16 7 52 c18 127 89 273 176 360 53 53 164
128 236 159 26 12 98 38 158 59 263 91 357 157 430 301 46 91 65 171 65 279
l0 92 -87 -48 c-241 -130 -533 -330 -677 -463 -92 -86 -81 -68 29 47 69 72 71
69 -48 107 -226 72 -459 72 -686 -1 -118 -37 -117 -34 -30 -117 112 -107 127
-133 24 -41 -154 138 -553 398 -749 487 l-54 25 -5 -52z"/>
<path d="M4241 6499 c-12 -13 -47 -61 -78 -107 -93 -138 -140 -277 -150 -443
-7 -122 3 -164 83 -349 104 -243 133 -359 141 -565 11 -275 -38 -508 -177
-846 l-48 -117 20 -32 c69 -115 276 -322 398 -401 48 -31 67 -48 63 -59 -29
-76 -36 -104 -40 -165 -5 -70 13 -145 35 -145 21 0 75 91 101 173 7 20 16 37
19 37 4 0 7 -28 8 -63 1 -67 26 -158 49 -177 11 -9 18 -5 35 22 26 42 50 122
50 164 0 42 17 53 26 17 24 -106 55 -183 73 -183 29 0 52 53 66 151 l7 46 41
-8 c122 -24 371 -20 485 8 20 5 22 1 22 -29 0 -43 27 -138 45 -157 7 -7 18
-10 24 -6 18 11 57 96 71 153 15 64 30 76 30 24 0 -50 34 -163 59 -193 l18
-23 16 25 c20 31 44 110 53 174 l7 50 23 -68 c27 -80 60 -137 79 -137 51 0 55
184 6 282 l-18 38 32 20 c132 81 330 277 413 407 l33 52 -60 145 c-124 294
-169 476 -178 711 -9 232 18 368 127 640 79 198 96 277 85 408 -13 173 -65
313 -168 457 -37 52 -60 75 -73 73 -23 -1 -295 -111 -309 -124 -5 -5 0 -9 15
-9 42 0 127 -46 175 -95 26 -25 61 -76 78 -113 30 -62 32 -74 31 -167 -1 -78
-6 -112 -23 -158 -41 -105 -166 -215 -275 -241 -49 -12 -198 -7 -247 8 -49 15
-123 51 -176 86 l-33 22 -9 -24 c-6 -12 -33 -80 -62 -151 -28 -70 -55 -130
-60 -133 -13 -8 -41 44 -93 176 -27 66 -53 120 -58 120 -6 0 -23 -9 -39 -21
-100 -71 -247 -106 -370 -89 -185 26 -317 156 -350 343 -34 203 68 372 265
438 51 17 51 17 21 25 -23 6 -236 91 -301 120 -7 3 -22 -5 -33 -17z m1137
-1270 c253 -58 472 -236 580 -469 62 -133 77 -210 77 -385 0 -165 -15 -236
-77 -360 -81 -162 -231 -315 -380 -388 -245 -121 -501 -123 -747 -6 -252 120
-416 326 -476 603 -33 150 -10 385 53 528 104 237 375 446 633 488 41 6 81 13
89 15 31 7 168 -7 248 -26z"/>
<path d="M5162 5188 c-28 -28 -1 -75 38 -63 14 4 20 15 20 35 0 36 -33 53 -58
28z"/>
<path d="M5095 5084 c-11 -2 -45 -9 -75 -15 -186 -37 -384 -203 -470 -393 -26
-58 -41 -115 -54 -214 l-6 -43 46 3 47 3 23 92 c26 108 56 168 129 255 61 73
118 116 208 159 60 28 213 67 223 57 2 -3 -7 -81 -21 -174 -37 -250 -33 -311
24 -378 15 -18 15 -19 -4 -12 -60 23 -495 15 -560 -10 -20 -8 -19 -21 3 -28
18 -6 309 -40 432 -51 73 -7 76 -6 118 25 24 17 46 38 49 48 4 9 17 30 29 45
44 53 41 128 -15 417 -16 80 -32 162 -35 183 -6 34 -9 37 -39 36 -18 -1 -41
-3 -52 -5z"/>
<path d="M5200 5063 c0 -60 9 -70 61 -77 131 -18 273 -90 372 -192 61 -62 122
-184 144 -289 9 -44 22 -83 27 -87 6 -4 28 -8 50 -8 l38 0 -7 56 c-22 175 -76
287 -199 410 -77 77 -106 98 -186 138 -92 45 -200 75 -267 76 -29 0 -33 -3
-33 -27z"/>
<path d="M4750 4773 c0 -6 17 -36 38 -69 21 -32 55 -90 76 -127 21 -38 44 -71
51 -73 14 -6 119 39 129 55 19 30 -23 68 -152 140 -37 21 -84 48 -104 60 -21
13 -38 19 -38 14z"/>
<path d="M5543 4726 c-103 -61 -179 -116 -201 -148 -14 -19 -13 -22 4 -35 24
-18 90 -35 117 -31 16 2 34 25 63 80 23 43 58 100 78 129 21 28 36 53 34 55
-2 1 -45 -21 -95 -50z"/>
<path d="M5304 4495 c-18 -8 -43 -29 -58 -47 l-25 -33 20 -21 c26 -27 72 -35
230 -36 122 0 286 17 303 32 16 15 -30 28 -144 40 -63 6 -126 17 -140 25 -86
48 -140 60 -186 40z"/>
<path d="M5940 4415 c-10 -12 -10 -18 0 -30 16 -19 31 -19 55 -1 16 12 17 16
6 30 -17 20 -45 21 -61 1z"/>
<path d="M4396 4405 c-9 -24 54 -48 68 -26 4 5 3 16 0 25 -8 20 -60 21 -68 1z"/>
<path d="M5172 4350 c-60 -70 -65 -89 -52 -193 6 -50 23 -152 36 -226 14 -73
23 -136 21 -138 -13 -12 -164 33 -242 72 -195 96 -284 216 -338 455 l-12 55
-47 3 c-56 4 -54 10 -33 -112 39 -223 180 -400 398 -501 90 -42 187 -67 240
-63 40 3 42 4 43 38 1 19 7 48 13 64 28 69 71 323 71 415 0 86 -2 98 -26 133
-15 21 -29 38 -33 37 -3 0 -21 -18 -39 -39z"/>
<path d="M5786 4368 c-2 -7 -11 -51 -20 -98 -23 -124 -72 -214 -160 -298 -88
-83 -167 -126 -292 -157 -52 -14 -100 -27 -105 -30 -5 -4 -9 -24 -9 -46 l0
-39 48 0 c71 0 156 25 261 76 205 101 354 316 369 532 l5 72 -47 0 c-29 0 -48
-5 -50 -12z"/>
<path d="M4893 4254 c-48 -62 -154 -227 -151 -236 3 -9 266 138 298 167 26 23
25 29 -7 65 -20 22 -40 33 -69 37 -38 5 -43 3 -71 -33z"/>
<path d="M5395 4262 c-90 -38 -89 -57 5 -117 94 -60 228 -130 236 -123 6 7
-115 199 -149 236 -24 26 -38 27 -92 4z"/>
<path d="M5172 3648 c-25 -25 -6 -68 30 -68 9 0 22 9 28 21 9 16 8 25 -6 40
-20 22 -35 24 -52 7z"/>
<path d="M4615 6181 c-48 -22 -69 -44 -90 -94 -31 -75 -13 -150 48 -204 88
-77 209 -61 274 36 47 69 39 150 -20 218 -56 63 -134 80 -212 44z"/>
<path d="M5595 6181 c-48 -22 -69 -44 -90 -94 -31 -75 -13 -150 48 -204 70
-61 153 -65 228 -11 109 79 92 254 -30 307 -61 26 -103 26 -156 2z"/>
<path d="M5133 5794 l-51 -36 18 -52 c10 -29 31 -83 47 -122 17 -38 33 -78 37
-89 6 -15 18 9 52 100 64 175 63 168 13 204 -23 17 -47 31 -53 31 -7 0 -35
-16 -63 -36z"/>
<path d="M3897 5605 c-77 -121 -147 -277 -199 -444 -84 -271 -88 -592 -12
-881 25 -95 116 -335 138 -366 11 -14 21 4 69 112 206 473 273 781 238 1094
-22 190 -102 446 -165 525 l-24 29 -45 -69z"/>
<path d="M6352 5573 c-173 -374 -174 -791 -3 -1240 47 -122 175 -420 185 -430
7 -8 64 121 102 231 19 54 46 156 60 225 58 278 24 639 -85 914 -67 168 -185
387 -209 387 -5 0 -27 -39 -50 -87z"/>
</g>
</svg>
